<mxfile host="app.diagrams.net" modified="2024-04-09T11:58:40.765Z" agent="Mozilla/5.0 (X11; Ubuntu; Linux x86_64; rv:124.0) Gecko/20100101 Firefox/124.0" etag="6THFc8blSJRKAim9_AZH" version="24.2.3" type="github">
  <diagram name="Page-1" id="tLsl5ddeSvGeSMNzBNdo">
    <mxGraphModel dx="2045" dy="627" grid="1" gridSize="10" guides="1" tooltips="1" connect="1" arrows="1" fold="1" page="1" pageScale="1" pageWidth="850" pageHeight="1100" math="0" shadow="0">
      <root>
        <mxCell id="0" />
        <mxCell id="1" parent="0" />
        <mxCell id="9HOtNN5ZUKyz-HD9QG1r-11" value="" style="edgeStyle=orthogonalEdgeStyle;rounded=0;orthogonalLoop=1;jettySize=auto;html=1;" edge="1" parent="1" source="9HOtNN5ZUKyz-HD9QG1r-3" target="9HOtNN5ZUKyz-HD9QG1r-10">
          <mxGeometry relative="1" as="geometry" />
        </mxCell>
        <mxCell id="9HOtNN5ZUKyz-HD9QG1r-3" value="&lt;div&gt;BlackJack-ASCII&lt;/div&gt;&lt;div&gt;game in Python&lt;br&gt;&lt;/div&gt;" style="ellipse;whiteSpace=wrap;html=1;" vertex="1" parent="1">
          <mxGeometry x="460" y="40" width="120" height="80" as="geometry" />
        </mxCell>
        <mxCell id="9HOtNN5ZUKyz-HD9QG1r-15" value="" style="edgeStyle=orthogonalEdgeStyle;rounded=0;orthogonalLoop=1;jettySize=auto;html=1;" edge="1" parent="1" source="9HOtNN5ZUKyz-HD9QG1r-10" target="9HOtNN5ZUKyz-HD9QG1r-14">
          <mxGeometry relative="1" as="geometry" />
        </mxCell>
        <mxCell id="9HOtNN5ZUKyz-HD9QG1r-17" value="" style="edgeStyle=orthogonalEdgeStyle;rounded=0;orthogonalLoop=1;jettySize=auto;html=1;" edge="1" parent="1" source="9HOtNN5ZUKyz-HD9QG1r-10" target="9HOtNN5ZUKyz-HD9QG1r-16">
          <mxGeometry relative="1" as="geometry" />
        </mxCell>
        <mxCell id="9HOtNN5ZUKyz-HD9QG1r-19" value="" style="edgeStyle=orthogonalEdgeStyle;rounded=0;orthogonalLoop=1;jettySize=auto;html=1;" edge="1" parent="1" source="9HOtNN5ZUKyz-HD9QG1r-10" target="9HOtNN5ZUKyz-HD9QG1r-18">
          <mxGeometry relative="1" as="geometry" />
        </mxCell>
        <mxCell id="9HOtNN5ZUKyz-HD9QG1r-10" value="&lt;div&gt;Make logic for the game&lt;/div&gt;" style="ellipse;whiteSpace=wrap;html=1;" vertex="1" parent="1">
          <mxGeometry x="140" y="170" width="120" height="80" as="geometry" />
        </mxCell>
        <mxCell id="9HOtNN5ZUKyz-HD9QG1r-23" value="" style="edgeStyle=orthogonalEdgeStyle;rounded=0;orthogonalLoop=1;jettySize=auto;html=1;" edge="1" parent="1" source="9HOtNN5ZUKyz-HD9QG1r-14" target="9HOtNN5ZUKyz-HD9QG1r-22">
          <mxGeometry relative="1" as="geometry" />
        </mxCell>
        <mxCell id="9HOtNN5ZUKyz-HD9QG1r-14" value="&lt;div&gt;create card deck&lt;/div&gt;" style="ellipse;whiteSpace=wrap;html=1;" vertex="1" parent="1">
          <mxGeometry x="-60" y="260" width="120" height="80" as="geometry" />
        </mxCell>
        <mxCell id="9HOtNN5ZUKyz-HD9QG1r-27" value="" style="edgeStyle=orthogonalEdgeStyle;rounded=0;orthogonalLoop=1;jettySize=auto;html=1;" edge="1" parent="1" source="9HOtNN5ZUKyz-HD9QG1r-16" target="9HOtNN5ZUKyz-HD9QG1r-26">
          <mxGeometry relative="1" as="geometry" />
        </mxCell>
        <mxCell id="9HOtNN5ZUKyz-HD9QG1r-31" value="" style="edgeStyle=orthogonalEdgeStyle;rounded=0;orthogonalLoop=1;jettySize=auto;html=1;" edge="1" parent="1" source="9HOtNN5ZUKyz-HD9QG1r-16" target="9HOtNN5ZUKyz-HD9QG1r-30">
          <mxGeometry relative="1" as="geometry" />
        </mxCell>
        <mxCell id="9HOtNN5ZUKyz-HD9QG1r-33" value="" style="edgeStyle=orthogonalEdgeStyle;rounded=0;orthogonalLoop=1;jettySize=auto;html=1;" edge="1" parent="1" source="9HOtNN5ZUKyz-HD9QG1r-16" target="9HOtNN5ZUKyz-HD9QG1r-32">
          <mxGeometry relative="1" as="geometry" />
        </mxCell>
        <mxCell id="9HOtNN5ZUKyz-HD9QG1r-16" value="dealer" style="ellipse;whiteSpace=wrap;html=1;" vertex="1" parent="1">
          <mxGeometry x="140" y="360" width="120" height="80" as="geometry" />
        </mxCell>
        <mxCell id="9HOtNN5ZUKyz-HD9QG1r-18" value="player" style="ellipse;whiteSpace=wrap;html=1;" vertex="1" parent="1">
          <mxGeometry x="340" y="270" width="120" height="80" as="geometry" />
        </mxCell>
        <mxCell id="9HOtNN5ZUKyz-HD9QG1r-25" value="" style="edgeStyle=orthogonalEdgeStyle;rounded=0;orthogonalLoop=1;jettySize=auto;html=1;" edge="1" parent="1" source="9HOtNN5ZUKyz-HD9QG1r-22" target="9HOtNN5ZUKyz-HD9QG1r-24">
          <mxGeometry relative="1" as="geometry" />
        </mxCell>
        <mxCell id="9HOtNN5ZUKyz-HD9QG1r-22" value="make array to store cards" style="rounded=1;whiteSpace=wrap;html=1;" vertex="1" parent="1">
          <mxGeometry x="-250" y="350" width="120" height="60" as="geometry" />
        </mxCell>
        <mxCell id="9HOtNN5ZUKyz-HD9QG1r-24" value="deck = [(&quot;ace of spades&quot;, 1), ...]" style="whiteSpace=wrap;html=1;rounded=1;" vertex="1" parent="1">
          <mxGeometry x="-250" y="470" width="120" height="60" as="geometry" />
        </mxCell>
        <mxCell id="9HOtNN5ZUKyz-HD9QG1r-26" value="allow dealer to shuffle the deck" style="whiteSpace=wrap;html=1;" vertex="1" parent="1">
          <mxGeometry x="140" y="500" width="120" height="60" as="geometry" />
        </mxCell>
        <mxCell id="9HOtNN5ZUKyz-HD9QG1r-30" value="create function to ask for hit" style="whiteSpace=wrap;html=1;" vertex="1" parent="1">
          <mxGeometry x="-10" y="450" width="120" height="60" as="geometry" />
        </mxCell>
        <mxCell id="9HOtNN5ZUKyz-HD9QG1r-32" value="create reveal card function" style="rounded=1;whiteSpace=wrap;html=1;" vertex="1" parent="1">
          <mxGeometry x="290" y="450" width="120" height="60" as="geometry" />
        </mxCell>
      </root>
    </mxGraphModel>
  </diagram>
</mxfile>
